<svg width="62" height="23" viewBox="0 0 62 23" fill="none" xmlns="http://www.w3.org/2000/svg">
<path d="M49.9835 19.2662L50.7132 19.1818C50.9566 19.1562 51.2012 19.1442 51.4449 19.1249C51.9324 19.0806 52.422 19.0811 52.9102 19.0638C53.1544 19.0612 53.3988 19.0688 53.6429 19.071C53.8871 19.0734 54.1312 19.0769 54.3748 19.0946L55.1057 19.1364C55.3488 19.1563 55.5914 19.1833 55.8341 19.2066L56.198 19.2431C56.3191 19.2571 56.4396 19.2764 56.5603 19.2929L57.2842 19.3962L58.0032 19.5283L58.3624 19.5953L58.7187 19.6762L59.4307 19.8399L60.1353 20.0328L60.4873 20.1297L60.8352 20.2409L61.5304 20.4641L60.4481 21.8647C60.152 21.3917 59.8554 20.9179 59.5588 20.444C58.3486 18.5027 57.1651 16.5695 55.7655 14.8477C55.2016 14.1542 54.6065 13.4891 53.9822 12.8494C53.8282 12.6878 53.6701 12.5296 53.509 12.3742L53.0215 11.8983L52.034 10.9383C51.3807 10.3102 50.721 9.69797 50.0411 9.14192C49.702 8.86436 49.3573 8.59835 49.0117 8.37151C48.8392 8.25167 48.6671 8.15478 48.4987 8.05918L48.2519 7.9362C48.1763 7.90919 48.1017 7.88053 48.0276 7.84997L48.8702 6.1877C50.6883 7.48145 52.209 9.14434 53.3996 11.003C54.5891 12.8643 55.4572 14.9301 55.9327 17.1012C56.0537 17.6538 55.7039 18.1999 55.1513 18.3209C54.7113 18.4173 54.2753 18.2151 54.0548 17.8496L54.0463 17.8348C53.0239 16.1336 51.5766 14.6543 49.8939 13.6436C49.0527 13.1403 48.1498 12.7591 47.2239 12.5504C46.2985 12.3406 45.3523 12.3072 44.4421 12.4763C43.6391 12.6294 42.8506 12.9116 42.085 13.2943C41.3204 13.6825 40.5776 14.1599 39.8463 14.6854C39.1153 15.2144 38.3938 15.7879 37.6571 16.3712C36.9229 16.955 36.1467 17.5541 35.3332 18.1019C34.5183 18.6525 33.6469 19.1577 32.708 19.5714C31.7729 19.9885 30.7447 20.2846 29.6733 20.3982C28.603 20.5163 27.4805 20.3904 26.4682 20.0882C25.4495 19.7879 24.5206 19.3323 23.6591 18.8233C22.7992 18.3105 21.9985 17.7502 21.225 17.1366C20.4541 16.5242 19.7219 15.8638 19.0334 15.1608C17.6542 13.7576 16.4576 12.1721 15.4736 10.4694C14.4994 8.77516 13.7432 7.07427 12.7724 5.61348C12.5305 5.25024 12.2744 4.89786 12.01 4.57671C11.7411 4.25389 11.4502 3.95209 11.1446 3.67198C10.84 3.39 10.5124 3.14142 10.1746 2.92151C9.83657 2.70226 9.48521 2.51234 9.12387 2.375C8.68912 2.20423 8.24422 2.09253 7.79831 2.05257C7.57525 2.03267 7.35285 2.02756 7.1264 2.04993C6.89885 2.05126 6.67766 2.10883 6.45167 2.14114C6.00668 2.25132 5.56688 2.42201 5.13762 2.64618C4.71353 2.88509 4.30038 3.1685 3.90634 3.49195C3.15605 4.12044 2.55449 4.71779 2.02966 5.19297C1.50554 5.67059 1.06503 6.03932 0.679273 6.29103C0.120839 6.66117 -0.0954798 6.51837 0.0378928 5.94949C0.0703649 5.80705 0.127238 5.639 0.207585 5.44616C0.285891 5.25269 0.390982 5.03584 0.521601 4.79647C0.78437 4.31903 1.14516 3.74768 1.66294 3.13003C2.31118 2.34779 3.11498 1.58235 4.09338 0.975675C4.21481 0.899543 4.34656 0.834531 4.47336 0.764311C4.60139 0.695352 4.72802 0.624621 4.86632 0.570285L5.27364 0.398121C5.41198 0.346045 5.55649 0.306004 5.6978 0.260815L5.91087 0.195922C5.98197 0.174759 6.05666 0.164128 6.12932 0.14816C6.27573 0.119769 6.42192 0.091423 6.56772 0.0631549C6.71466 0.0426436 6.86332 0.0346478 7.01039 0.0213259C7.1578 0.00957925 7.30413 -0.005059 7.45251 0.00225288C8.13335 0.00286875 8.80609 0.122647 9.43326 0.330937C10.0616 0.539029 10.6461 0.832321 11.1828 1.17777C12.2563 1.8722 13.1485 2.76364 13.8869 3.75087C14.6162 4.72913 15.1983 5.76942 15.74 6.79066C16.2815 7.81299 16.7859 8.82238 17.3512 9.7633C18.4828 11.6403 19.9085 13.3414 21.5623 14.7745C22.3887 15.4906 23.2707 16.1435 24.1951 16.719C25.1149 17.2919 26.069 17.7643 27.0386 18.0352C27.5744 18.1792 28.1135 18.269 28.653 18.2637C29.1933 18.2682 29.7379 18.2033 30.2772 18.0719C31.3556 17.8004 32.4081 17.3122 33.4063 16.7386C34.207 16.288 34.9829 15.7493 35.7492 15.178C36.5197 14.6011 37.2982 13.9866 38.1075 13.3923C38.9184 12.7976 39.7691 12.2198 40.6876 11.7164C40.9229 11.5976 41.1497 11.4678 41.3935 11.3603L41.7545 11.1932L42.126 11.0422L42.3119 10.967L42.5028 10.901L42.885 10.77L43.2765 10.6599L43.4725 10.6056L43.6721 10.562C44.7369 10.3102 45.8701 10.2801 46.9468 10.4419C48.0276 10.6038 49.065 10.9483 50.0199 11.4239C51.9331 12.3783 53.5447 13.8007 54.7942 15.4748C55.1224 15.9162 55.4267 16.376 55.7052 16.8565L54.0488 17.5006C53.6554 15.5626 52.8923 13.6842 51.8342 11.9962C50.776 10.309 49.4179 8.80551 47.8205 7.64595L47.7784 7.61536C47.3999 7.34067 47.3159 6.81121 47.5906 6.43282C47.8215 6.11467 48.2332 6.00504 48.5832 6.14129L48.8362 6.23987C48.92 6.27346 49.007 6.30643 49.078 6.3458C49.2244 6.42286 49.3843 6.49527 49.5153 6.58012C49.794 6.74272 50.0488 6.91726 50.2965 7.09583C50.7898 7.4537 51.241 7.83458 51.679 8.22364C52.7173 9.14562 53.6633 10.1235 54.6141 11.0686L54.9783 11.4354L55.3339 11.8114C55.5738 12.0592 55.7995 12.3213 56.0315 12.5767C56.4839 13.0983 56.9286 13.6277 57.3455 14.1763C58.1905 15.2665 58.9494 16.4075 59.6838 17.5467L61.8425 20.9613L61.8489 20.9713C62.0619 21.3084 61.9615 21.7543 61.6244 21.9674C61.4342 22.0877 61.2061 22.1069 61.008 22.0413C58.6966 21.2621 56.2647 20.8332 53.8214 20.7774C51.3777 20.7154 48.9248 21.0564 46.585 21.7641C46.0623 21.9136 45.5576 22.1026 45.0631 22.2728L45.0303 22.2841C44.7206 22.3906 44.3833 22.226 44.2767 21.9164C44.1823 21.6421 44.301 21.346 44.5447 21.2079C46.0973 20.3265 47.6529 19.5393 49.2047 18.9101C50.754 18.2791 52.3038 17.8094 53.8027 17.5656C54.2003 17.499 54.5007 17.4929 54.6968 17.5192C54.8929 17.5446 54.9853 17.6029 54.9745 17.6841C54.9528 17.8514 54.5193 18.0837 53.6749 18.3923C51.281 19.2766 48.8975 20.5497 46.5748 21.928C46.1825 22.162 45.788 22.3972 45.3859 22.637L44.4571 20.7292C45.3379 20.3933 46.2385 20.0778 47.1654 19.8527C47.6244 19.7229 48.0941 19.6376 48.5593 19.5342C48.7926 19.4861 49.0285 19.452 49.2626 19.4102C49.4973 19.3713 49.7309 19.3259 49.9669 19.2999C49.972 19.2886 49.9768 19.278 49.9835 19.2662Z" fill="url(#paint0_linear_1680_15288)"/>
<defs>
<linearGradient id="paint0_linear_1680_15288" x1="14.0217" y1="-7.38316" x2="47.8867" y2="33.3865" gradientUnits="userSpaceOnUse">
<stop stop-color="white"/>
<stop offset="1" stop-color="#C20C19"/>
</linearGradient>
</defs>
</svg>
