<svg width="89" height="38" viewBox="0 0 89 38" fill="none" xmlns="http://www.w3.org/2000/svg">
<path d="M72.1133 15.2797L72.9476 14.6144C73.2279 14.3956 73.5201 14.1926 73.8057 13.9814C74.3724 13.5518 74.9761 13.1757 75.5645 12.7788C75.8635 12.5877 76.1705 12.4091 76.4731 12.224C76.7759 12.039 77.0794 11.8556 77.3933 11.69L78.3261 11.1792C78.6411 11.0168 78.9608 10.8634 79.2779 10.7054L79.7544 10.4704C79.9144 10.3945 80.0778 10.3256 80.2393 10.253L81.2109 9.8235L82.1987 9.43322L82.6928 9.23944L83.1942 9.06495L84.1977 8.71911L85.2144 8.41474L85.7228 8.26331L86.2371 8.13276L87.2656 7.87301L87.0092 10.4318C86.2803 10.0766 85.5503 9.72088 84.8203 9.36498C81.8352 7.90349 78.8896 6.43137 75.8399 5.38612C74.6116 4.9652 73.3665 4.60346 72.105 4.29533C71.7908 4.21458 71.4743 4.14121 71.1561 4.0736L70.1892 3.86224L68.2337 3.43871C66.9453 3.16731 65.6613 2.92025 64.3956 2.75796C63.7641 2.67678 63.1347 2.6141 62.5343 2.60039C62.2294 2.58544 61.9428 2.59841 61.6617 2.61016L61.263 2.64843C61.149 2.67332 61.035 2.69538 60.9203 2.71469L60.6798 0.0178999C63.9159 0.21365 67.0692 1.0932 69.9665 2.46793C72.8643 3.84681 75.5234 5.72494 77.7798 8.0348C78.354 8.62278 78.343 9.5649 77.7551 10.1391C77.2869 10.5965 76.594 10.6826 76.0412 10.4018L76.0192 10.3901C73.4504 9.08009 70.5286 8.37032 67.6774 8.41921C66.2534 8.44609 64.8475 8.67091 63.5457 9.12596C62.2438 9.5793 61.052 10.2661 60.0604 11.1746C59.1885 11.9811 58.4338 12.9356 57.7848 13.9961C57.141 15.0628 56.5928 16.2226 56.0959 17.4328C55.6019 18.6471 55.1539 19.9089 54.6948 21.1946C54.239 22.479 53.7433 23.8145 53.1621 25.1153C52.5813 26.4209 51.8961 27.7139 51.0572 28.946C50.2257 30.1794 49.1862 31.3354 47.9533 32.2996C46.725 33.2686 45.2447 33.9769 43.7646 34.3832C42.2781 34.7969 40.7829 34.95 39.3296 34.9853C37.8753 35.0149 36.4574 34.9403 35.0321 34.7792C33.6109 34.6175 32.2005 34.3669 30.8111 34.0302C28.0318 33.3619 25.3373 32.3283 22.8148 30.9869C20.3108 29.6483 18.0703 28.1339 15.7501 27.0803C15.1724 26.8188 14.5858 26.5816 14.0129 26.3891C13.4331 26.1982 12.8424 26.05 12.2503 25.9399C11.6579 25.8267 11.063 25.7723 10.4775 25.7612C9.89224 25.751 9.3131 25.7873 8.76212 25.896C8.09494 26.02 7.46071 26.2246 6.88041 26.5184C6.5902 26.6655 6.31218 26.8303 6.0503 27.032C5.77088 27.2087 5.54257 27.4499 5.28892 27.6635C4.82525 28.1417 4.41455 28.6903 4.05797 29.2968C3.71909 29.9176 3.42795 30.5847 3.19115 31.2864C2.74997 32.6382 2.46813 33.8372 2.18688 34.8266C1.90837 35.8184 1.64914 36.6117 1.36736 37.2187C0.963878 38.1045 0.587423 38.0949 0.314151 37.2912C0.244594 37.0907 0.185402 36.8398 0.136072 36.5403C0.0837455 36.2417 0.0464355 35.8935 0.0232684 35.4981C-0.0201881 34.7075 -0.0150866 33.7258 0.147885 32.5662C0.345026 31.1035 0.746789 29.5418 1.48588 28.0414C1.57697 27.8542 1.68933 27.6727 1.79158 27.4886C1.89631 27.3051 1.99796 27.1205 2.12662 26.9472L2.49616 26.4216C2.62659 26.251 2.77389 26.0905 2.91327 25.9261L3.12594 25.6822C3.19729 25.6014 3.28117 25.5309 3.35843 25.4553C3.51703 25.3077 3.67539 25.1603 3.83334 25.0133C3.99865 24.8749 4.1757 24.7507 4.34672 24.6212C4.51935 24.4933 4.68843 24.3627 4.87692 24.2575C5.71648 23.7345 6.63774 23.3646 7.57091 23.1388C8.50536 22.9119 9.45133 22.8237 10.3786 22.8365C12.2358 22.8666 14.0212 23.2788 15.6907 23.9274C17.342 24.5721 18.8597 25.4063 20.313 26.2482C21.7669 27.0916 23.165 27.9475 24.5856 28.6723C27.4241 30.115 30.4899 31.1146 33.6306 31.6085C35.2 31.8554 36.7893 31.9815 38.3712 31.9796C39.9456 31.9781 41.4849 31.8263 42.8882 31.4142C43.6594 31.1794 44.3929 30.8755 45.0537 30.4539C45.7231 30.0438 46.3443 29.5449 46.9078 28.968C48.0281 27.8038 48.9496 26.3925 49.7385 24.9176C50.3787 23.7463 50.9205 22.4854 51.4254 21.1918C51.9311 19.8881 52.4179 18.5319 52.9581 17.1768C53.5 15.8201 54.1039 14.4535 54.8486 13.1266C55.0472 12.799 55.2268 12.4646 55.4446 12.1446L55.761 11.6609L56.1027 11.189L56.274 10.9534L56.4585 10.7252L56.8287 10.2696L57.2266 9.83284L57.4263 9.61517L57.6387 9.40785C58.7574 8.2783 60.1307 7.36942 61.5821 6.74058C63.0387 6.10861 64.5822 5.73515 66.125 5.58663C69.2171 5.291 72.2975 5.8043 75.1254 6.90625C75.8694 7.19781 76.5982 7.53034 77.311 7.90827L75.7652 9.97626C73.7894 7.89053 71.4039 6.16263 68.8013 4.89616C66.1991 3.63096 63.3688 2.82279 60.508 2.6226L60.4326 2.61731C59.7549 2.56991 59.244 1.98204 59.2914 1.30437C59.3313 0.734626 59.7543 0.282825 60.2904 0.181493L60.6781 0.108334C60.8072 0.0852439 60.9397 0.0589947 61.0576 0.0528831C61.2973 0.0352307 61.5501 0.00140456 61.7768 0.00518554C62.2454 -0.00881254 62.6937 0.0102818 63.1362 0.0398606C64.0196 0.101367 64.8687 0.223629 65.7078 0.366208C67.6967 0.703719 69.6149 1.18105 71.5137 1.61448L72.2447 1.7864L72.9723 1.97616C73.4586 2.097 73.9383 2.24637 74.4208 2.38262C75.3796 2.67744 76.3349 2.98776 77.2707 3.34321C79.1508 4.03682 80.9639 4.85907 82.7454 5.69817L88.0327 8.24569L88.0483 8.25313C88.5702 8.5046 88.7894 9.13146 88.538 9.65337C88.3961 9.9479 88.1297 10.1472 87.8351 10.2187C84.387 11.0365 81.0599 12.3788 78.0058 14.1897C74.9464 15.9932 72.1858 18.3005 69.8466 20.9727C69.3173 21.5591 68.8407 22.1803 68.3622 22.7705L68.3304 22.8096C68.0308 23.1791 67.4884 23.2358 67.1189 22.9362C66.7915 22.6708 66.71 22.2145 66.9041 21.8569C68.1395 19.5762 69.4511 17.4093 70.8795 15.4401C72.3034 13.4705 73.8522 11.6994 75.5119 10.2458C75.9507 9.85784 76.3162 9.61921 76.5782 9.50067C76.8393 9.38117 76.9981 9.38203 77.0472 9.49028C77.1492 9.71319 76.7937 10.333 75.9904 11.3629C73.7203 14.2944 71.7622 17.6971 69.9601 21.1825C69.6565 21.7727 69.3513 22.3661 69.0402 22.9709L66.4279 21.3343C67.2549 20.2427 68.1222 19.1611 69.0913 18.1706C69.5572 17.6575 70.0705 17.1909 70.5642 16.7056C70.8147 16.4669 71.0792 16.2435 71.3357 16.0119C71.5949 15.7833 71.8478 15.5477 72.1187 15.3341C72.1162 15.3162 72.1141 15.2994 72.1133 15.2797Z" fill="black"/>
</svg>
