<svg width="89" height="38" viewBox="0 0 89 38" fill="none" xmlns="http://www.w3.org/2000/svg">
<path d="M16.5289 15.2797L15.6946 14.6144C15.4144 14.3956 15.1221 14.1926 14.8365 13.9814C14.2698 13.5518 13.6661 13.1757 13.0777 12.7788C12.7787 12.5877 12.4717 12.4091 12.1691 12.224C11.8663 12.039 11.5628 11.8556 11.249 11.69L10.3161 11.1792C10.0011 11.0168 9.6814 10.8634 9.3643 10.7054L8.8878 10.4704C8.7278 10.3945 8.56439 10.3256 8.40293 10.253L7.43135 9.8235L6.44352 9.43322L5.94942 9.23944L5.448 9.06495L4.44455 8.71911L3.4278 8.41474L2.9194 8.26331L2.40513 8.13276L1.37665 7.87301L1.63303 10.4318C2.36188 10.0766 3.09187 9.72089 3.82193 9.36498C6.80696 7.90349 9.75265 6.43137 12.8023 5.38612C14.0306 4.96521 15.2757 4.60346 16.5372 4.29533C16.8514 4.21458 17.1679 4.14121 17.4861 4.0736L18.453 3.86224L20.4085 3.43871C21.6969 3.16731 22.981 2.92025 24.2466 2.75796C24.8781 2.67678 25.5075 2.6141 26.1079 2.60039C26.4128 2.58544 26.6994 2.5984 26.9805 2.61016L27.3792 2.64843C27.4932 2.67332 27.6072 2.69538 27.722 2.71469L27.9624 0.0178999C24.7264 0.21365 21.573 1.0932 18.6757 2.46793C15.7779 3.84681 13.1188 5.72494 10.8624 8.0348C10.2882 8.62278 10.2992 9.5649 10.8871 10.1391C11.3553 10.5965 12.0482 10.6826 12.6011 10.4018L12.623 10.3901C15.1918 9.08009 18.1136 8.37032 20.9648 8.41921C22.3888 8.44609 23.7947 8.67091 25.0965 9.12596C26.3984 9.5793 27.5902 10.2661 28.5818 11.1746C29.4537 11.9811 30.2084 12.9356 30.8575 13.9961C31.5012 15.0628 32.0494 16.2226 32.5463 17.4328C33.0403 18.6471 33.4883 19.9089 33.9474 21.1946C34.4032 22.479 34.8989 23.8145 35.4801 25.1153C36.0609 26.4209 36.7461 27.7139 37.585 28.946C38.4165 30.1794 39.456 31.3354 40.6889 32.2996C41.9172 33.2686 43.3975 33.9769 44.8776 34.3832C46.3641 34.7969 47.8593 34.95 49.3127 34.9853C50.7669 35.0149 52.1848 34.9403 53.6101 34.7792C55.0313 34.6175 56.4417 34.3669 57.8311 34.0302C60.6104 33.3619 63.3049 32.3283 65.8274 30.9869C68.3314 29.6483 70.5719 28.1339 72.8921 27.0803C73.4698 26.8188 74.0565 26.5816 74.6293 26.3891C75.2091 26.1982 75.7998 26.05 76.3919 25.9399C76.9843 25.8267 77.5792 25.7723 78.1647 25.7612C78.75 25.751 79.3291 25.7873 79.8801 25.896C80.5473 26.02 81.1815 26.2246 81.7618 26.5184C82.052 26.6655 82.33 26.8303 82.5919 27.032C82.8713 27.2087 83.0996 27.4499 83.3533 27.6635C83.817 28.1416 84.2277 28.6903 84.5842 29.2968C84.9231 29.9176 85.2143 30.5847 85.4511 31.2864C85.8922 32.6382 86.1741 33.8372 86.4553 34.8266C86.7338 35.8184 86.9931 36.6117 87.2749 37.2187C87.6783 38.1045 88.0548 38.0949 88.3281 37.2912C88.3976 37.0907 88.4568 36.8398 88.5061 36.5403C88.5585 36.2417 88.5958 35.8935 88.6189 35.4981C88.6624 34.7075 88.6573 33.7258 88.4943 32.5662C88.2972 31.1035 87.8954 29.5418 87.1563 28.0414C87.0652 27.8542 86.9529 27.6727 86.8506 27.4886C86.7459 27.3051 86.6443 27.1205 86.5156 26.9472L86.146 26.4216C86.0156 26.251 85.8683 26.0905 85.7289 25.9261L85.5163 25.6822C85.4449 25.6014 85.361 25.5309 85.2838 25.4553C85.1252 25.3077 84.9668 25.1603 84.8089 25.0133C84.6436 24.8749 84.4665 24.7507 84.2955 24.6212C84.1229 24.4933 83.9538 24.3627 83.7653 24.2575C82.9257 23.7345 82.0045 23.3646 81.0713 23.1388C80.1369 22.9119 79.1909 22.8237 78.2636 22.8365C76.4064 22.8666 74.621 23.2788 72.9515 23.9274C71.3002 24.5721 69.7825 25.4063 68.3292 26.2482C66.8753 27.0916 65.4772 27.9475 64.0567 28.6723C61.2181 30.115 58.1523 31.1146 55.0116 31.6085C53.4422 31.8554 51.8529 31.9815 50.271 31.9796C48.6966 31.9781 47.1573 31.8263 45.754 31.4142C44.9828 31.1794 44.2493 30.8755 43.5885 30.4539C42.9191 30.0438 42.2979 29.5449 41.7344 28.968C40.6141 27.8038 39.6927 26.3925 38.9037 24.9176C38.2635 23.7463 37.7217 22.4854 37.2168 21.1918C36.7111 19.8881 36.2244 18.5319 35.6841 17.1768C35.1422 15.8201 34.5383 14.4535 33.7936 13.1266C33.595 12.799 33.4154 12.4646 33.1976 12.1446L32.8812 11.6609L32.5395 11.189L32.3682 10.9534L32.1837 10.7252L31.8135 10.2696L31.4157 9.83284L31.2159 9.61517L31.0035 9.40785C29.8849 8.27831 28.5115 7.36942 27.0601 6.74058C25.6035 6.10862 24.06 5.73515 22.5172 5.58663C19.4251 5.29099 16.3447 5.8043 13.5168 6.90625C12.7728 7.19781 12.0441 7.53034 11.3312 7.90827L12.8771 9.97626C14.8528 7.89052 17.2383 6.16263 19.8409 4.89616C22.4431 3.63096 25.2734 2.82279 28.1342 2.6226L28.2096 2.61731C28.8873 2.5699 29.3983 1.98204 29.3508 1.30437C29.311 0.734626 28.888 0.282824 28.3518 0.181493L27.9641 0.108334C27.835 0.0852439 27.7025 0.0589959 27.5847 0.0528831C27.3449 0.0352306 27.0921 0.00140456 26.8654 0.00518554C26.3968 -0.00881254 25.9485 0.0102818 25.506 0.0398606C24.6226 0.101367 23.7735 0.223629 22.9344 0.366208C20.9455 0.703719 19.0273 1.18105 17.1285 1.61448L16.3975 1.7864L15.6699 1.97616C15.1836 2.097 14.7039 2.24637 14.2214 2.38262C13.2626 2.67744 12.3074 2.98776 11.3715 3.34321C9.49138 4.03682 7.6783 4.85907 5.89679 5.69817L0.609501 8.24569L0.593929 8.25313C0.0720467 8.5046 -0.147193 9.13147 0.104262 9.65337C0.246131 9.9479 0.512497 10.1472 0.807144 10.2187C4.2552 11.0365 7.58233 12.3788 10.6364 14.1897C13.6958 15.9932 16.4565 18.3005 18.7957 20.9727C19.3249 21.5591 19.8015 22.1803 20.28 22.7705L20.3118 22.8096C20.6114 23.1791 21.1538 23.2358 21.5233 22.9362C21.8507 22.6708 21.9322 22.2145 21.7382 21.8569C20.5027 19.5762 19.1911 17.4093 17.7627 15.4401C16.3388 13.4705 14.79 11.6994 13.1303 10.2458C12.6915 9.85784 12.326 9.61921 12.0641 9.50067C11.8029 9.38117 11.6442 9.38203 11.595 9.49028C11.493 9.71319 11.8485 10.333 12.6518 11.3629C14.9219 14.2944 16.88 17.6971 18.6822 21.1825C18.9857 21.7727 19.2909 22.3661 19.602 22.9709L22.2143 21.3343C21.3873 20.2427 20.52 19.1611 19.5509 18.1706C19.085 17.6575 18.5717 17.1909 18.078 16.7056C17.8275 16.4669 17.563 16.2435 17.3066 16.0119C17.0473 15.7833 16.7944 15.5477 16.5235 15.3341C16.526 15.3162 16.5281 15.2994 16.5289 15.2797Z" fill="black"/>
</svg>
